<mxfile host="app.diagrams.net" agent="Mozilla/5.0 (Windows NT 10.0; Win64; x64) AppleWebKit/537.36 (KHTML, like Gecko) Chrome/133.0.0.0 Safari/537.36 Edg/133.0.0.0" version="26.1.0">
  <diagram name="Página-1" id="CyATxOYFkX04adVEnZ4u">
    <mxGraphModel dx="956" dy="599" grid="1" gridSize="10" guides="1" tooltips="1" connect="1" arrows="1" fold="1" page="1" pageScale="1" pageWidth="827" pageHeight="1169" math="0" shadow="0">
      <root>
        <mxCell id="0" />
        <mxCell id="1" parent="0" />
        <mxCell id="aMTEM0gakYQ_vsqnv0gd-3" value="&lt;h2&gt;&lt;br&gt;&lt;/h2&gt;" style="rounded=0;whiteSpace=wrap;html=1;strokeColor=light-dark(#f9f5f5, #ededed);fillColor=#fff2cc;gradientColor=#ffd966;strokeWidth=3;" vertex="1" parent="1">
          <mxGeometry x="160" y="160" width="400" height="200" as="geometry" />
        </mxCell>
        <mxCell id="aMTEM0gakYQ_vsqnv0gd-4" value="" style="rounded=0;whiteSpace=wrap;html=1;strokeColor=light-dark(#f9f5f5, #ededed);fillColor=#dae8fc;gradientColor=#7ea6e0;strokeWidth=3;" vertex="1" parent="1">
          <mxGeometry x="560" y="160" width="160" height="200" as="geometry" />
        </mxCell>
        <mxCell id="aMTEM0gakYQ_vsqnv0gd-5" value="" style="rounded=0;whiteSpace=wrap;html=1;strokeColor=light-dark(#f5efef, #ededed);fillColor=#f8cecc;gradientColor=#ea6b66;strokeWidth=3;" vertex="1" parent="1">
          <mxGeometry x="160" y="360" width="280" height="120" as="geometry" />
        </mxCell>
        <mxCell id="aMTEM0gakYQ_vsqnv0gd-6" value="" style="rounded=0;whiteSpace=wrap;html=1;strokeColor=light-dark(#fbf4f4, #ededed);fillColor=#d5e8d4;gradientColor=#97d077;strokeWidth=3;" vertex="1" parent="1">
          <mxGeometry x="440" y="360" width="280" height="120" as="geometry" />
        </mxCell>
        <mxCell id="aMTEM0gakYQ_vsqnv0gd-7" value="&lt;div style=&quot;background-color: rgb(255, 255, 254); font-family: Consolas, &amp;quot;Courier New&amp;quot;, monospace; line-height: 19px; white-space: pre;&quot;&gt;&lt;span style=&quot;color: rgb(170, 133, 0);&quot;&gt;&lt;font style=&quot;font-size: 8px;&quot;&gt;Observación de la &lt;/font&gt;&lt;/span&gt;&lt;/div&gt;&lt;div style=&quot;background-color: rgb(255, 255, 254); font-family: Consolas, &amp;quot;Courier New&amp;quot;, monospace; line-height: 19px; white-space: pre;&quot;&gt;&lt;span style=&quot;color: rgb(170, 133, 0);&quot;&gt;&lt;font style=&quot;font-size: 8px;&quot;&gt;dinámica del congreso&lt;/font&gt;&lt;/span&gt;&lt;/div&gt;" style="rounded=1;whiteSpace=wrap;html=1;" vertex="1" parent="1">
          <mxGeometry x="170" y="230" width="100" height="60" as="geometry" />
        </mxCell>
        <mxCell id="aMTEM0gakYQ_vsqnv0gd-8" value="&lt;div style=&quot;background-color: rgb(255, 255, 254); font-family: Consolas, &amp;quot;Courier New&amp;quot;, monospace; line-height: 19px; white-space: pre;&quot;&gt;&lt;span style=&quot;color: rgb(170, 133, 0);&quot;&gt;&lt;font style=&quot;font-size: 8px;&quot;&gt;Simulación de los &lt;/font&gt;&lt;/span&gt;&lt;/div&gt;&lt;div style=&quot;background-color: rgb(255, 255, 254); font-family: Consolas, &amp;quot;Courier New&amp;quot;, monospace; line-height: 19px; white-space: pre;&quot;&gt;&lt;span style=&quot;color: rgb(170, 133, 0);&quot;&gt;&lt;font style=&quot;font-size: 8px;&quot;&gt;datos &lt;/font&gt;&lt;/span&gt;&lt;span style=&quot;font-size: 8px; color: light-dark(rgb(170, 133, 0), rgb(158, 126, 12)); background-color: light-dark(rgb(255, 255, 254), rgb(18, 18, 17));&quot;&gt;de congresistas&lt;/span&gt;&lt;/div&gt;" style="rounded=1;whiteSpace=wrap;html=1;" vertex="1" parent="1">
          <mxGeometry x="340" y="180" width="100" height="60" as="geometry" />
        </mxCell>
        <mxCell id="aMTEM0gakYQ_vsqnv0gd-9" value="&lt;div style=&quot;forced-color-adjust: none; color: rgb(0, 0, 0); font-size: 12px; font-style: normal; font-variant-ligatures: normal; font-variant-caps: normal; font-weight: 400; letter-spacing: normal; orphans: 2; text-align: center; text-indent: 0px; text-transform: none; widows: 2; word-spacing: 0px; -webkit-text-stroke-width: 0px; text-decoration-thickness: initial; text-decoration-style: initial; text-decoration-color: initial; background-color: light-dark(rgb(255, 255, 254), rgb(18, 18, 17)); font-family: Consolas, &amp;quot;Courier New&amp;quot;, monospace; line-height: 19px; white-space: pre;&quot;&gt;&lt;span style=&quot;forced-color-adjust: none; color: rgb(170, 133, 0);&quot;&gt;&lt;font style=&quot;forced-color-adjust: none; font-size: 8px;&quot;&gt;Simulación de los&lt;/font&gt;&lt;/span&gt;&lt;/div&gt;&lt;div style=&quot;forced-color-adjust: none; color: rgb(0, 0, 0); font-size: 12px; font-style: normal; font-variant-ligatures: normal; font-variant-caps: normal; font-weight: 400; letter-spacing: normal; orphans: 2; text-align: center; text-indent: 0px; text-transform: none; widows: 2; word-spacing: 0px; -webkit-text-stroke-width: 0px; text-decoration-thickness: initial; text-decoration-style: initial; text-decoration-color: initial; background-color: light-dark(rgb(255, 255, 254), rgb(18, 18, 17)); font-family: Consolas, &amp;quot;Courier New&amp;quot;, monospace; line-height: 19px; white-space: pre;&quot;&gt;&lt;span style=&quot;font-size: 8px; color: light-dark(rgb(170, 133, 0), rgb(158, 126, 12)); background-color: light-dark(rgb(255, 255, 254), rgb(18, 18, 17));&quot;&gt;datos &lt;/span&gt;&lt;span style=&quot;font-size: 8px; color: light-dark(rgb(170, 133, 0), rgb(158, 126, 12)); background-color: light-dark(rgb(255, 255, 254), rgb(18, 18, 17));&quot;&gt;de proyectos&lt;/span&gt;&lt;/div&gt;" style="rounded=1;whiteSpace=wrap;html=1;" vertex="1" parent="1">
          <mxGeometry x="340" y="280" width="100" height="60" as="geometry" />
        </mxCell>
        <mxCell id="aMTEM0gakYQ_vsqnv0gd-10" value="&lt;div style=&quot;background-color: rgb(255, 255, 254); font-family: Consolas, &amp;quot;Courier New&amp;quot;, monospace; line-height: 19px; white-space: pre;&quot;&gt;&lt;span style=&quot;color: rgb(170, 133, 0);&quot;&gt;&lt;font style=&quot;font-size: 9px;&quot;&gt;Merge de ambos &lt;/font&gt;&lt;/span&gt;&lt;/div&gt;&lt;div style=&quot;background-color: rgb(255, 255, 254); font-family: Consolas, &amp;quot;Courier New&amp;quot;, monospace; line-height: 19px; white-space: pre;&quot;&gt;&lt;span style=&quot;color: rgb(170, 133, 0);&quot;&gt;&lt;font style=&quot;font-size: 9px;&quot;&gt;datos simulados&lt;/font&gt;&lt;/span&gt;&lt;/div&gt;" style="rounded=1;whiteSpace=wrap;html=1;" vertex="1" parent="1">
          <mxGeometry x="450" y="230" width="100" height="60" as="geometry" />
        </mxCell>
        <mxCell id="aMTEM0gakYQ_vsqnv0gd-11" value="&lt;div style=&quot;background-color: rgb(255, 255, 254); font-family: Consolas, &amp;quot;Courier New&amp;quot;, monospace; line-height: 19px; white-space: pre;&quot;&gt;&lt;font style=&quot;color: light-dark(rgb(7, 31, 207), rgb(158, 126, 12)); font-size: 8px;&quot;&gt;Reemplazo de los &lt;/font&gt;&lt;/div&gt;&lt;div style=&quot;background-color: rgb(255, 255, 254); font-family: Consolas, &amp;quot;Courier New&amp;quot;, monospace; line-height: 19px; white-space: pre;&quot;&gt;&lt;font style=&quot;color: light-dark(rgb(7, 31, 207), rgb(158, 126, 12)); font-size: 8px;&quot;&gt;caracteres &lt;/font&gt;&lt;span style=&quot;color: light-dark(rgb(7, 31, 207), rgb(158, 126, 12)); font-size: 8px;&quot;&gt;incorrectos&lt;/span&gt;&lt;/div&gt;&lt;div style=&quot;background-color: rgb(255, 255, 254); font-family: Consolas, &amp;quot;Courier New&amp;quot;, monospace; line-height: 19px; white-space: pre;&quot;&gt;&lt;span style=&quot;color: light-dark(rgb(7, 31, 207), rgb(158, 126, 12)); font-size: 8px;&quot;&gt; en nombres&lt;/span&gt;&lt;/div&gt;" style="rounded=1;whiteSpace=wrap;html=1;" vertex="1" parent="1">
          <mxGeometry x="585" y="225" width="110" height="70" as="geometry" />
        </mxCell>
        <mxCell id="aMTEM0gakYQ_vsqnv0gd-12" value="&lt;div style=&quot;background-color: rgb(255, 255, 254); font-family: Consolas, &amp;quot;Courier New&amp;quot;, monospace; line-height: 19px; white-space: pre;&quot;&gt;&lt;div style=&quot;line-height: 19px;&quot;&gt;&lt;font style=&quot;color: rgb(255, 51, 51); font-size: 9px;&quot;&gt;Estandarización &lt;/font&gt;&lt;/div&gt;&lt;div style=&quot;line-height: 19px;&quot;&gt;&lt;font style=&quot;font-size: 9px;&quot;&gt;&lt;font style=&quot;color: rgb(255, 51, 51);&quot;&gt;formato &lt;/font&gt;&lt;span style=&quot;color: light-dark(rgb(255, 51, 51), rgb(255, 119, 119)); background-color: light-dark(rgb(255, 255, 254), rgb(18, 18, 17));&quot;&gt;texto&lt;/span&gt;&lt;/font&gt;&lt;/div&gt;&lt;/div&gt;" style="rounded=1;whiteSpace=wrap;html=1;fontColor=light-dark(#e60a0a, #ededed);" vertex="1" parent="1">
          <mxGeometry x="180" y="390" width="100" height="60" as="geometry" />
        </mxCell>
        <mxCell id="aMTEM0gakYQ_vsqnv0gd-13" value="&lt;div style=&quot;background-color: rgb(255, 255, 254); font-family: Consolas, &amp;quot;Courier New&amp;quot;, monospace; line-height: 19px; white-space: pre;&quot;&gt;&lt;div style=&quot;line-height: 19px;&quot;&gt;&lt;font style=&quot;color: rgb(255, 51, 51); font-size: 8px;&quot;&gt;Mapeo del tipo de&lt;/font&gt;&lt;/div&gt;&lt;div style=&quot;line-height: 19px;&quot;&gt;&lt;font style=&quot;color: rgb(255, 51, 51); font-size: 8px;&quot;&gt;las iniciativas&lt;/font&gt;&lt;/div&gt;&lt;/div&gt;" style="rounded=1;whiteSpace=wrap;html=1;" vertex="1" parent="1">
          <mxGeometry x="310" y="390" width="100" height="60" as="geometry" />
        </mxCell>
        <mxCell id="aMTEM0gakYQ_vsqnv0gd-14" value="&lt;div style=&quot;background-color: rgb(255, 255, 254); font-family: Consolas, &amp;quot;Courier New&amp;quot;, monospace; line-height: 19px; white-space: pre;&quot;&gt;&lt;div style=&quot;line-height: 19px;&quot;&gt;&lt;font style=&quot;font-size: 9px; color: rgb(0, 204, 0);&quot;&gt;Visualización de &lt;/font&gt;&lt;/div&gt;&lt;div style=&quot;line-height: 19px;&quot;&gt;&lt;font style=&quot;font-size: 9px; color: rgb(0, 204, 0);&quot;&gt;los datos agrupados&lt;/font&gt;&lt;/div&gt;&lt;/div&gt;" style="rounded=1;whiteSpace=wrap;html=1;" vertex="1" parent="1">
          <mxGeometry x="470" y="390" width="100" height="60" as="geometry" />
        </mxCell>
        <mxCell id="aMTEM0gakYQ_vsqnv0gd-15" value="&lt;div style=&quot;background-color: rgb(255, 255, 254); font-family: Consolas, &amp;quot;Courier New&amp;quot;, monospace; line-height: 19px; white-space: pre;&quot;&gt;&lt;div style=&quot;line-height: 19px;&quot;&gt;&lt;font style=&quot;color: rgb(0, 204, 0); font-size: 9px;&quot;&gt;Cargue final de &lt;/font&gt;&lt;/div&gt;&lt;div style=&quot;line-height: 19px;&quot;&gt;&lt;font style=&quot;color: rgb(0, 204, 0); font-size: 9px;&quot;&gt;resultados&lt;/font&gt;&lt;/div&gt;&lt;/div&gt;" style="rounded=1;whiteSpace=wrap;html=1;" vertex="1" parent="1">
          <mxGeometry x="600" y="390" width="100" height="60" as="geometry" />
        </mxCell>
        <mxCell id="aMTEM0gakYQ_vsqnv0gd-17" value="FASE 1: OBSERVACIÓN" style="rounded=1;whiteSpace=wrap;html=1;strokeColor=none;fillColor=none;align=left;" vertex="1" parent="1">
          <mxGeometry x="170" y="160" width="180" height="30" as="geometry" />
        </mxCell>
        <mxCell id="aMTEM0gakYQ_vsqnv0gd-18" value="FASE 2: LIMPIEZA" style="rounded=1;whiteSpace=wrap;html=1;strokeColor=none;fillColor=none;align=right;" vertex="1" parent="1">
          <mxGeometry x="530" y="160" width="180" height="30" as="geometry" />
        </mxCell>
        <mxCell id="aMTEM0gakYQ_vsqnv0gd-19" value="FASE 4: ANÁLISIS" style="rounded=1;whiteSpace=wrap;html=1;strokeColor=none;fillColor=none;align=right;" vertex="1" parent="1">
          <mxGeometry x="540" y="450" width="180" height="30" as="geometry" />
        </mxCell>
        <mxCell id="aMTEM0gakYQ_vsqnv0gd-20" value="FASE 3: PROCESAMIENTO" style="rounded=1;whiteSpace=wrap;html=1;strokeColor=none;fillColor=none;align=left;" vertex="1" parent="1">
          <mxGeometry x="170" y="450" width="180" height="30" as="geometry" />
        </mxCell>
        <mxCell id="aMTEM0gakYQ_vsqnv0gd-22" value="RAW DATA" style="rounded=1;html=1;fontColor=#FFFFFF;labelBackgroundColor=#7C7C7C;strokeColor=none;fillColor=none;fontSize=8;" vertex="1" parent="1">
          <mxGeometry x="290" y="230" width="40" height="60" as="geometry" />
        </mxCell>
        <mxCell id="aMTEM0gakYQ_vsqnv0gd-23" value="" style="endArrow=classic;html=1;rounded=0;" edge="1" parent="1" target="aMTEM0gakYQ_vsqnv0gd-22">
          <mxGeometry width="50" height="50" relative="1" as="geometry">
            <mxPoint x="270" y="260" as="sourcePoint" />
            <mxPoint x="320" y="210" as="targetPoint" />
          </mxGeometry>
        </mxCell>
        <mxCell id="aMTEM0gakYQ_vsqnv0gd-25" value="" style="endArrow=classic;html=1;rounded=0;entryX=0.25;entryY=1;entryDx=0;entryDy=0;" edge="1" parent="1" target="aMTEM0gakYQ_vsqnv0gd-8">
          <mxGeometry width="50" height="50" relative="1" as="geometry">
            <mxPoint x="330" y="260" as="sourcePoint" />
            <mxPoint x="360" y="240" as="targetPoint" />
          </mxGeometry>
        </mxCell>
        <mxCell id="aMTEM0gakYQ_vsqnv0gd-27" value="" style="endArrow=classic;html=1;rounded=0;exitX=1;exitY=0.5;exitDx=0;exitDy=0;entryX=0.25;entryY=0;entryDx=0;entryDy=0;" edge="1" parent="1" source="aMTEM0gakYQ_vsqnv0gd-22" target="aMTEM0gakYQ_vsqnv0gd-9">
          <mxGeometry width="50" height="50" relative="1" as="geometry">
            <mxPoint x="260" y="335" as="sourcePoint" />
            <mxPoint x="310" y="285" as="targetPoint" />
          </mxGeometry>
        </mxCell>
        <mxCell id="aMTEM0gakYQ_vsqnv0gd-28" value="" style="endArrow=classic;html=1;rounded=0;entryX=0;entryY=0.5;entryDx=0;entryDy=0;exitX=0.75;exitY=0;exitDx=0;exitDy=0;" edge="1" parent="1" source="aMTEM0gakYQ_vsqnv0gd-9" target="aMTEM0gakYQ_vsqnv0gd-10">
          <mxGeometry width="50" height="50" relative="1" as="geometry">
            <mxPoint x="340" y="270" as="sourcePoint" />
            <mxPoint x="375" y="250" as="targetPoint" />
          </mxGeometry>
        </mxCell>
        <mxCell id="aMTEM0gakYQ_vsqnv0gd-29" value="" style="endArrow=classic;html=1;rounded=0;exitX=0.75;exitY=1;exitDx=0;exitDy=0;entryX=0;entryY=0.5;entryDx=0;entryDy=0;" edge="1" parent="1" source="aMTEM0gakYQ_vsqnv0gd-8" target="aMTEM0gakYQ_vsqnv0gd-10">
          <mxGeometry width="50" height="50" relative="1" as="geometry">
            <mxPoint x="470" y="310" as="sourcePoint" />
            <mxPoint x="520" y="260" as="targetPoint" />
          </mxGeometry>
        </mxCell>
        <mxCell id="aMTEM0gakYQ_vsqnv0gd-30" value="" style="endArrow=classic;html=1;rounded=0;entryX=0;entryY=0.5;entryDx=0;entryDy=0;exitX=1;exitY=0.5;exitDx=0;exitDy=0;" edge="1" parent="1" source="aMTEM0gakYQ_vsqnv0gd-10" target="aMTEM0gakYQ_vsqnv0gd-11">
          <mxGeometry width="50" height="50" relative="1" as="geometry">
            <mxPoint x="470" y="310" as="sourcePoint" />
            <mxPoint x="520" y="260" as="targetPoint" />
          </mxGeometry>
        </mxCell>
        <mxCell id="aMTEM0gakYQ_vsqnv0gd-34" value="" style="curved=1;endArrow=classic;html=1;rounded=0;labelPosition=left;verticalLabelPosition=middle;align=right;verticalAlign=middle;textDirection=ltr;entryX=0.5;entryY=0;entryDx=0;entryDy=0;" edge="1" parent="1" target="aMTEM0gakYQ_vsqnv0gd-12">
          <mxGeometry width="50" height="50" relative="1" as="geometry">
            <mxPoint x="640" y="295" as="sourcePoint" />
            <mxPoint x="690" y="245" as="targetPoint" />
            <Array as="points">
              <mxPoint x="630" y="320" />
              <mxPoint x="620" y="350" />
              <mxPoint x="440" y="370" />
              <mxPoint x="320" y="360" />
            </Array>
          </mxGeometry>
        </mxCell>
        <mxCell id="aMTEM0gakYQ_vsqnv0gd-35" value="" style="endArrow=classic;html=1;rounded=0;exitX=1;exitY=0.5;exitDx=0;exitDy=0;" edge="1" parent="1" source="aMTEM0gakYQ_vsqnv0gd-12" target="aMTEM0gakYQ_vsqnv0gd-13">
          <mxGeometry width="50" height="50" relative="1" as="geometry">
            <mxPoint x="470" y="310" as="sourcePoint" />
            <mxPoint x="520" y="260" as="targetPoint" />
          </mxGeometry>
        </mxCell>
        <mxCell id="aMTEM0gakYQ_vsqnv0gd-36" value="" style="endArrow=classic;html=1;rounded=0;exitX=1;exitY=0.5;exitDx=0;exitDy=0;entryX=0;entryY=0.5;entryDx=0;entryDy=0;" edge="1" parent="1" source="aMTEM0gakYQ_vsqnv0gd-13" target="aMTEM0gakYQ_vsqnv0gd-14">
          <mxGeometry width="50" height="50" relative="1" as="geometry">
            <mxPoint x="470" y="310" as="sourcePoint" />
            <mxPoint x="520" y="260" as="targetPoint" />
          </mxGeometry>
        </mxCell>
        <mxCell id="aMTEM0gakYQ_vsqnv0gd-37" value="" style="endArrow=classic;html=1;rounded=0;exitX=1;exitY=0.5;exitDx=0;exitDy=0;entryX=0;entryY=0.5;entryDx=0;entryDy=0;" edge="1" parent="1" source="aMTEM0gakYQ_vsqnv0gd-14" target="aMTEM0gakYQ_vsqnv0gd-15">
          <mxGeometry width="50" height="50" relative="1" as="geometry">
            <mxPoint x="470" y="310" as="sourcePoint" />
            <mxPoint x="520" y="260" as="targetPoint" />
          </mxGeometry>
        </mxCell>
      </root>
    </mxGraphModel>
  </diagram>
</mxfile>
